<svg xmlns="http://www.w3.org/2000/svg" viewBox="0 0 100 100" role="img" aria-labelledby="title">
<title id="title">DIGITAL FUTURE STATE emblem</title>
<defs><linearGradient id="gold" x1="0" y1="0" x2="1" y2="1"><stop offset="0" stop-color="#f5d992"/><stop offset="1" stop-color="#bc8d3e"/></linearGradient></defs>
<path d="M50 5 84 18v27c0 24-14 40-34 50C30 85 16 69 16 45V18Z" fill="#071426" stroke="url(#gold)" stroke-width="2.5"/>
<path d="M31 43c0-12 8-21 19-21s19 9 19 21M36 46c0-9 6-15 14-15s14 6 14 15M41 49c0-6 4-10 9-10s9 4 9 10M46 51v11M54 51v18M33 56c2 12 8 19 17 25M67 56c-2 9-5 15-10 20" fill="none" stroke="url(#gold)" stroke-width="2.6" stroke-linecap="round"/>
<circle cx="50" cy="46" r="2.2" fill="#f5d992"/>
</svg>